<?xml version="1.0" encoding="UTF-8" standalone="no"?>
<svg
   xmlns:dc="http://purl.org/dc/elements/1.1/"
   xmlns:cc="http://creativecommons.org/ns#"
   xmlns:rdf="http://www.w3.org/1999/02/22-rdf-syntax-ns#"
   xmlns:svg="http://www.w3.org/2000/svg"
   xmlns="http://www.w3.org/2000/svg"
   xmlns:sodipodi="http://sodipodi.sourceforge.net/DTD/sodipodi-0.dtd"
   xmlns:inkscape="http://www.inkscape.org/namespaces/inkscape"
   version="1.1"
   x="0px"
   y="0px"
   viewBox="0 0 100 125"
   style="enable-background:new 0 0 100 100;"
   xml:space="preserve"
   id="svg14"
   sodipodi:docname="noun_mouse scroll_496855.svg"
   inkscape:version="0.92.4 (5da689c313, 2019-01-14)"><metadata
     id="metadata20"><rdf:RDF><cc:Work
         rdf:about=""><dc:format>image/svg+xml</dc:format><dc:type
           rdf:resource="http://purl.org/dc/dcmitype/StillImage" /></cc:Work></rdf:RDF></metadata><defs
     id="defs18" /><sodipodi:namedview
     pagecolor="#ffffff"
     bordercolor="#666666"
     borderopacity="1"
     objecttolerance="10"
     gridtolerance="10"
     guidetolerance="10"
     inkscape:pageopacity="0"
     inkscape:pageshadow="2"
     inkscape:window-width="1832"
     inkscape:window-height="964"
     id="namedview16"
     showgrid="false"
     inkscape:zoom="5.3400704"
     inkscape:cx="-4.5915087"
     inkscape:cy="70.409786"
     inkscape:window-x="29"
     inkscape:window-y="57"
     inkscape:window-maximized="0"
     inkscape:current-layer="svg14" /><path
     d="m 56.225473,91.397597 -6.6,6.6 -6.6,-6.6 c -0.8,-0.8 -2,-0.8 -2.8,0 -0.8,0.8 -0.8,2 0,2.8 l 8,8.000003 c 0.4,0.4 0.9,0.6 1.4,0.6 0.5,0 1,-0.2 1.4,-0.6 l 8,-8.000003 c 0.8,-0.8 0.8,-2 0,-2.8 -0.8,-0.8 -2,-0.8 -2.8,0 z"
     id="path2"
     inkscape:connector-curvature="0" /><path
     d="m 58.83821,79.274017 c -0.8,-0.8 -2,-0.8 -2.8,0 l -6.6,6.6 -6.6,-6.6 c -0.8,-0.8 -2,-0.8 -2.8,0 -0.8,0.8 -0.8,2 0,2.8 l 8,8 c 0.4,0.4 0.9,0.6 1.4,0.6 0.5,0 1,-0.2 1.4,-0.6 l 8,-8 c 0.8,-0.8 0.8,-2 0,-2.8 z"
     id="path4"
     inkscape:connector-curvature="0" /><path
     d="m 67.43821,57.172124 v -18 c 0,-9.9 -8.1,-18 -18,-18 -9.9,0 -18,8.1 -18,18 v 18 c 0,9.9 8.1,18 18,18 9.9,0 18,-8.1 18,-18 z m -18,14 c -7.7,0 -14,-6.3 -14,-14 v -18 c 0,-7.7 6.3,-14 14,-14 7.7,0 14,6.3 14,14 v 18 c 0,7.7 -6.3,14 -14,14 z"
     id="path6"
     inkscape:connector-curvature="0" /><path
     d="m 49.812736,32.359388 c -1.1,0 -2,0.9 -2,2 v 6 c 0,1.1 0.9,2 2,2 1.1,0 2,-0.9 2,-2 v -6 c 0,-1.1 -0.9,-2 -2,-2 z"
     id="path8"
     inkscape:connector-curvature="0" /></svg>